# xmcd CD database file
#
# Track frame offsets:
#	150
#	34880
#	54185
#	83723
#	111579
#	139471
#	166749
#	197846
#	224542
#	253906
#
# Disc length: 3811 seconds
#
# Revision: 0
# Processed by: cddbd v1.5.1PL0 Copyright (c) Steve Scherf et al.
# Submitted via: CDex 1.51
#
DISCID=950ee10a
DTITLE=Varios - Relajación 1
DYEAR=2004
DGENRE=New Age
TTITLE0=A new  Day YIN YANG
TTITLE1=The Gods YIN YANG
TTITLE2=Masculinity YIN YANG
TTITLE3=Summer YIN YANG
TTITLE4=The Sun YIN YANG
TTITLE5=Reiki Do REIKI
TTITLE6=Vibrations REIKI
TTITLE7=Emotional Balance REIKI
TTITLE8=Transformation REIKI
TTITLE9=A Touch REIKI
EXTD=YEAR: 2004
EXTT0=
EXTT1=
EXTT2=
EXTT3=
EXTT4=
EXTT5=
EXTT6=
EXTT7=
EXTT8=
EXTT9=
PLAYORDER=
